<svg width="728" height="107" viewBox="0 0 728 107" fill="none" xmlns="http://www.w3.org/2000/svg">
<g filter="url(#filter0_d_14_3)">
<path d="M136.875 5.375C134.958 5.70833 133.375 6.08333 132.125 6.5C130.958 6.91667 129.958 7.45833 129.125 8.125C128.292 8.79167 127.583 9.70833 127 10.875C126.417 12.0417 125.792 13.5417 125.125 15.375C122.542 22.375 120.292 28.4167 118.375 33.5C116.542 38.5833 114.875 43.2083 113.375 47.375C111.875 51.4583 110.5 55.25 109.25 58.75C108.083 62.25 106.833 65.9167 105.5 69.75C104.167 73.5833 102.75 77.8333 101.25 82.5C99.75 87.0833 98 92.4583 96 98.625H93.875L71.125 38.25L49 98.625H46.875L19.375 22C18.0417 18.5833 16.875 15.8333 15.875 13.75C14.875 11.6667 13.8333 10.0417 12.75 8.875C11.75 7.625 10.5833 6.79167 9.25 6.375C8 5.875 6.45833 5.54167 4.625 5.375V2.5H39.625V5.375C36.0417 5.54167 33.5833 5.95833 32.25 6.625C30.9167 7.20833 30.25 8.25 30.25 9.75C30.25 10.5833 30.375 11.5417 30.625 12.625C30.9583 13.7083 31.375 14.9583 31.875 16.375L52.5 70.125L67.75 29.75L63 18.125C61.75 15.2917 60.6667 13.0417 59.75 11.375C58.9167 9.625 58 8.33333 57 7.5C56 6.58333 54.8333 6 53.5 5.75C52.25 5.5 50.625 5.375 48.625 5.375V2.5H86.625V5.375C82.875 5.375 80.125 5.79167 78.375 6.625C76.7083 7.45833 75.875 8.66667 75.875 10.25C75.875 11 76.0417 12 76.375 13.25C76.7083 14.5 77.2083 15.9167 77.875 17.5L79.625 21.875L98.5 70.5L116.25 22.25C117.833 17.9167 118.625 14.2917 118.625 11.375C118.625 9.45833 117.875 8.08333 116.375 7.25C114.958 6.33333 112.417 5.70833 108.75 5.375V2.5H136.875V5.375ZM217.375 97H140.375V94.375C142.958 94.2083 145.042 93.9167 146.625 93.5C148.292 93.0833 149.542 92.4167 150.375 91.5C151.292 90.5833 151.917 89.3333 152.25 87.75C152.583 86.1667 152.75 84.125 152.75 81.625V18.125C152.75 15.625 152.583 13.5833 152.25 12C152 10.4167 151.417 9.16667 150.5 8.25C149.583 7.33333 148.292 6.66667 146.625 6.25C145.042 5.83333 142.958 5.54167 140.375 5.375V2.5H216.125L216.375 23H213C212.333 19.75 211.583 17.1667 210.75 15.25C209.917 13.25 208.708 11.7083 207.125 10.625C205.625 9.54167 203.583 8.83333 201 8.5C198.5 8.16667 195.25 8 191.25 8H172C170.083 8 168.792 8.29167 168.125 8.875C167.542 9.45833 167.25 10.7917 167.25 12.875V44.5H189.125C192.042 44.5 194.417 44.3333 196.25 44C198.083 43.6667 199.542 43.0417 200.625 42.125C201.792 41.125 202.667 39.75 203.25 38C203.833 36.25 204.375 33.9167 204.875 31H208.25V64.125H204.875C204.375 61.125 203.833 58.75 203.25 57C202.667 55.1667 201.833 53.7917 200.75 52.875C199.667 51.875 198.208 51.2083 196.375 50.875C194.542 50.5417 192.125 50.375 189.125 50.375H167.25V85.625C167.25 87.0417 167.333 88.0833 167.5 88.75C167.667 89.4167 167.958 89.9167 168.375 90.25C169.042 90.6667 170.625 91.0417 173.125 91.375C175.708 91.625 178.75 91.75 182.25 91.75H186.25C191.333 91.75 195.583 91.5 199 91C202.5 90.5 205.458 89.5417 207.875 88.125C210.375 86.7083 212.542 84.7917 214.375 82.375C216.208 79.9583 218 76.7917 219.75 72.875H223.875L217.375 97ZM311.125 72.25L304.125 97H227.5V94.375C230.083 94.2083 232.167 93.9167 233.75 93.5C235.417 93.0833 236.667 92.4167 237.5 91.5C238.417 90.5833 239.042 89.3333 239.375 87.75C239.708 86.1667 239.875 84.125 239.875 81.625V18.125C239.875 15.625 239.708 13.5833 239.375 12C239.125 10.4167 238.542 9.16667 237.625 8.25C236.708 7.33333 235.417 6.66667 233.75 6.25C232.167 5.83333 230.083 5.54167 227.5 5.375V2.5H267.625V5.375C264.792 5.54167 262.5 5.83333 260.75 6.25C259 6.58333 257.667 7.25 256.75 8.25C255.833 9.16667 255.208 10.4167 254.875 12C254.542 13.5833 254.375 15.625 254.375 18.125V85.625C254.375 86.875 254.5 87.9167 254.75 88.75C255.083 89.5 255.708 90.0833 256.625 90.5C257.542 90.9167 258.792 91.2083 260.375 91.375C261.958 91.4583 264.083 91.5 266.75 91.5H276.25C282.333 91.5 287.375 90.7917 291.375 89.375C295.458 87.9583 298.792 85.7917 301.375 82.875C302.375 81.7083 303.333 80.25 304.25 78.5C305.25 76.75 306.333 74.6667 307.5 72.25H311.125ZM398.125 32.75C397.458 30.4167 396.792 28.4167 396.125 26.75C395.458 25 394.75 23.4583 394 22.125C393.333 20.7083 392.542 19.4583 391.625 18.375C390.792 17.2917 389.792 16.1667 388.625 15C385.792 12.0833 382.542 9.91667 378.875 8.5C375.292 7 371.458 6.25 367.375 6.25C362.208 6.25 357.5 7.25 353.25 9.25C349.083 11.25 345.5 14.125 342.5 17.875C339.583 21.5417 337.333 26 335.75 31.25C334.167 36.5 333.375 42.3333 333.375 48.75C333.375 57.0833 334.5 64.375 336.75 70.625C339 76.875 342.208 81.75 346.375 85.25C352.625 90.25 360.083 92.75 368.75 92.75C374.667 92.75 380.125 91.625 385.125 89.375C390.125 87.125 395.292 83.4583 400.625 78.375L403.125 80.875C398.792 86.625 393.25 91.0833 386.5 94.25C379.833 97.4167 372.417 99 364.25 99C357.167 99 350.708 97.8333 344.875 95.5C339.042 93.1667 334.042 89.9167 329.875 85.75C325.708 81.5 322.458 76.4167 320.125 70.5C317.875 64.5833 316.75 58 316.75 50.75C316.75 42.5 318.167 35.0833 321 28.5C323.833 21.8333 328 16.25 333.5 11.75C337.833 8.25 342.708 5.54167 348.125 3.625C353.542 1.625 359 0.625 364.5 0.625C371.583 0.625 378.583 1.79167 385.5 4.125C387.833 4.95833 389.708 5.375 391.125 5.375C392.542 5.375 393.75 4.95833 394.75 4.125C395.833 3.29167 396.583 2.125 397 0.625H400L401.375 32.75H398.125ZM460.25 0.625C467 0.625 473.417 2.04167 479.5 4.875C485.667 7.70833 490.875 11.625 495.125 16.625C498.625 20.875 501.333 25.8333 503.25 31.5C505.167 37.1667 506.125 43.25 506.125 49.75C506.125 57 504.958 63.6667 502.625 69.75C500.375 75.75 497.167 80.9167 493 85.25C488.917 89.5833 484 92.9583 478.25 95.375C472.583 97.7917 466.333 99 459.5 99C452.583 99 446.25 97.7917 440.5 95.375C434.75 92.9583 429.833 89.5833 425.75 85.25C421.667 80.8333 418.5 75.5833 416.25 69.5C414 63.4167 412.875 56.7083 412.875 49.375C412.875 42.2083 414.042 35.625 416.375 29.625C418.708 23.625 421.958 18.5 426.125 14.25C430.292 9.91667 435.25 6.58333 441 4.25C446.833 1.83333 453.25 0.625 460.25 0.625ZM459 5.625C455.083 5.625 451.333 6.54167 447.75 8.375C444.167 10.125 441.042 12.5833 438.375 15.75C436.958 17.4167 435.667 19.5 434.5 22C433.417 24.5 432.458 27.25 431.625 30.25C430.792 33.1667 430.167 36.2917 429.75 39.625C429.333 42.9583 429.125 46.2917 429.125 49.625C429.125 58.2083 430.25 65.8333 432.5 72.5C434.75 79.1667 437.875 84.1667 441.875 87.5C446.875 91.75 452.792 93.875 459.625 93.875C463.208 93.875 466.583 93.2083 469.75 91.875C473 90.5417 475.833 88.6667 478.25 86.25C486 78.6667 489.875 66.25 489.875 49C489.875 40.75 488.708 33.4167 486.375 27C484.125 20.5833 480.958 15.625 476.875 12.125C471.625 7.79167 465.667 5.625 459 5.625ZM570.75 97H568.625L532.75 18.625V76C532.75 79.6667 532.917 82.6667 533.25 85C533.667 87.25 534.375 89.0417 535.375 90.375C536.375 91.7083 537.75 92.6667 539.5 93.25C541.25 93.8333 543.5 94.2083 546.25 94.375V97H512.75V94.375C515.667 94.125 518 93.75 519.75 93.25C521.583 92.6667 522.958 91.7083 523.875 90.375C524.875 89.0417 525.542 87.25 525.875 85C526.208 82.6667 526.375 79.6667 526.375 76V18.125C526.375 15.5417 526.208 13.4583 525.875 11.875C525.625 10.2917 525 9.04167 524 8.125C523.083 7.20833 521.75 6.58333 520 6.25C518.25 5.83333 515.917 5.54167 513 5.375V2.5H541.25L574.125 74.625L605.875 2.5H634.125V5.375C631.458 5.54167 629.333 5.83333 627.75 6.25C626.167 6.66667 624.917 7.33333 624 8.25C623.083 9.16667 622.458 10.4167 622.125 12C621.875 13.5833 621.75 15.625 621.75 18.125V81.625C621.75 84.125 621.917 86.1667 622.25 87.75C622.583 89.3333 623.167 90.5833 624 91.5C624.917 92.4167 626.167 93.0833 627.75 93.5C629.417 93.9167 631.542 94.2083 634.125 94.375V97H594.125V94.375C596.958 94.2083 599.208 93.9167 600.875 93.5C602.625 93.0833 603.958 92.375 604.875 91.375C605.792 90.2917 606.375 88.875 606.625 87.125C606.958 85.2917 607.125 82.875 607.125 79.875V15.25L570.75 97ZM716.75 97H639.75V94.375C642.333 94.2083 644.417 93.9167 646 93.5C647.667 93.0833 648.917 92.4167 649.75 91.5C650.667 90.5833 651.292 89.3333 651.625 87.75C651.958 86.1667 652.125 84.125 652.125 81.625V18.125C652.125 15.625 651.958 13.5833 651.625 12C651.375 10.4167 650.792 9.16667 649.875 8.25C648.958 7.33333 647.667 6.66667 646 6.25C644.417 5.83333 642.333 5.54167 639.75 5.375V2.5H715.5L715.75 23H712.375C711.708 19.75 710.958 17.1667 710.125 15.25C709.292 13.25 708.083 11.7083 706.5 10.625C705 9.54167 702.958 8.83333 700.375 8.5C697.875 8.16667 694.625 8 690.625 8H671.375C669.458 8 668.167 8.29167 667.5 8.875C666.917 9.45833 666.625 10.7917 666.625 12.875V44.5H688.5C691.417 44.5 693.792 44.3333 695.625 44C697.458 43.6667 698.917 43.0417 700 42.125C701.167 41.125 702.042 39.75 702.625 38C703.208 36.25 703.75 33.9167 704.25 31H707.625V64.125H704.25C703.75 61.125 703.208 58.75 702.625 57C702.042 55.1667 701.208 53.7917 700.125 52.875C699.042 51.875 697.583 51.2083 695.75 50.875C693.917 50.5417 691.5 50.375 688.5 50.375H666.625V85.625C666.625 87.0417 666.708 88.0833 666.875 88.75C667.042 89.4167 667.333 89.9167 667.75 90.25C668.417 90.6667 670 91.0417 672.5 91.375C675.083 91.625 678.125 91.75 681.625 91.75H685.625C690.708 91.75 694.958 91.5 698.375 91C701.875 90.5 704.833 89.5417 707.25 88.125C709.75 86.7083 711.917 84.7917 713.75 82.375C715.583 79.9583 717.375 76.7917 719.125 72.875H723.25L716.75 97Z" fill="url(#paint0_linear_14_3)"/>
</g>
<defs>
<filter id="filter0_d_14_3" x="0.625" y="0.625" width="726.625" height="106.375" filterUnits="userSpaceOnUse" color-interpolation-filters="sRGB">
<feFlood flood-opacity="0" result="BackgroundImageFix"/>
<feColorMatrix in="SourceAlpha" type="matrix" values="0 0 0 0 0 0 0 0 0 0 0 0 0 0 0 0 0 0 127 0" result="hardAlpha"/>
<feOffset dy="4"/>
<feGaussianBlur stdDeviation="2"/>
<feComposite in2="hardAlpha" operator="out"/>
<feColorMatrix type="matrix" values="0 0 0 0 0 0 0 0 0 0 0 0 0 0 0 0 0 0 0.25 0"/>
<feBlend mode="normal" in2="BackgroundImageFix" result="effect1_dropShadow_14_3"/>
<feBlend mode="normal" in="SourceGraphic" in2="effect1_dropShadow_14_3" result="shape"/>
</filter>
<linearGradient id="paint0_linear_14_3" x1="4" y1="46" x2="751" y2="46" gradientUnits="userSpaceOnUse">
<stop stop-color="#0A0101"/>
<stop offset="0.72" stop-color="#767272"/>
<stop offset="0.935" stop-color="#E3E3E3"/>
</linearGradient>
</defs>
</svg>
