<svg width="552" height="108" viewBox="0 0 552 108" fill="none" xmlns="http://www.w3.org/2000/svg">
<g filter="url(#filter0_d_14_3)">
<path d="M136.875 6.375C134.958 6.70833 133.375 7.08333 132.125 7.5C130.958 7.91667 129.958 8.45833 129.125 9.125C128.292 9.79167 127.583 10.7083 127 11.875C126.417 13.0417 125.792 14.5417 125.125 16.375C122.542 23.375 120.292 29.4167 118.375 34.5C116.542 39.5833 114.875 44.2083 113.375 48.375C111.875 52.4583 110.5 56.25 109.25 59.75C108.083 63.25 106.833 66.9167 105.5 70.75C104.167 74.5833 102.75 78.8333 101.25 83.5C99.75 88.0833 98 93.4583 96 99.625H93.875L71.125 39.25L49 99.625H46.875L19.375 23C18.0417 19.5833 16.875 16.8333 15.875 14.75C14.875 12.6667 13.8333 11.0417 12.75 9.875C11.75 8.625 10.5833 7.79167 9.25 7.375C8 6.875 6.45833 6.54167 4.625 6.375V3.5H39.625V6.375C36.0417 6.54167 33.5833 6.95833 32.25 7.625C30.9167 8.20833 30.25 9.25 30.25 10.75C30.25 11.5833 30.375 12.5417 30.625 13.625C30.9583 14.7083 31.375 15.9583 31.875 17.375L52.5 71.125L67.75 30.75L63 19.125C61.75 16.2917 60.6667 14.0417 59.75 12.375C58.9167 10.625 58 9.33333 57 8.5C56 7.58333 54.8333 7 53.5 6.75C52.25 6.5 50.625 6.375 48.625 6.375V3.5H86.625V6.375C82.875 6.375 80.125 6.79167 78.375 7.625C76.7083 8.45833 75.875 9.66667 75.875 11.25C75.875 12 76.0417 13 76.375 14.25C76.7083 15.5 77.2083 16.9167 77.875 18.5L79.625 22.875L98.5 71.5L116.25 23.25C117.833 18.9167 118.625 15.2917 118.625 12.375C118.625 10.4583 117.875 9.08333 116.375 8.25C114.958 7.33333 112.417 6.70833 108.75 6.375V3.5H136.875V6.375ZM199.125 75.625C196.125 83.4583 192.042 89.375 186.875 93.375C181.792 97.375 175.792 99.375 168.875 99.375C164.792 99.375 161.083 98.625 157.75 97.125C154.5 95.625 151.708 93.5 149.375 90.75C147.042 88 145.25 84.6667 144 80.75C142.75 76.8333 142.125 72.4167 142.125 67.5C142.125 62.25 142.833 57.4583 144.25 53.125C145.75 48.7917 147.792 45.0833 150.375 42C153.042 38.8333 156.208 36.375 159.875 34.625C163.542 32.875 167.583 32 172 32C175.75 32 179.167 32.7083 182.25 34.125C185.417 35.5417 188.083 37.5417 190.25 40.125C191.167 41.2917 191.917 42.4583 192.5 43.625C193.167 44.7917 193.708 46.0833 194.125 47.5C194.625 48.9167 195.042 50.5 195.375 52.25C195.708 54 196.042 56 196.375 58.25H152.5C152.667 62.8333 153.042 66.625 153.625 69.625C154.292 72.5417 155.333 75.375 156.75 78.125C160.833 85.7917 166.833 89.625 174.75 89.625C179.333 89.625 183.292 88.5 186.625 86.25C190.042 84 193.458 80.1667 196.875 74.75L199.125 75.625ZM181.875 53.5C180.958 47.3333 179.458 43.0833 177.375 40.75C175.375 38.3333 172.208 37.125 167.875 37.125C163.458 37.125 160 38.4167 157.5 41C155.083 43.5833 153.5 47.75 152.75 53.5H181.875ZM204.625 6.75C207.125 6.16667 209.333 5.66667 211.25 5.25C213.25 4.75 215.125 4.25 216.875 3.75C218.708 3.25 220.458 2.75 222.125 2.25C223.792 1.75 225.542 1.16667 227.375 0.5L228 0.875V86C228 88 228.125 89.625 228.375 90.875C228.625 92.0417 229.125 93 229.875 93.75C230.625 94.4167 231.667 94.9167 233 95.25C234.417 95.5833 236.25 95.8333 238.5 96V98H205V96C207.25 95.75 209.083 95.4583 210.5 95.125C211.917 94.7083 213.042 94.125 213.875 93.375C214.708 92.5417 215.25 91.5 215.5 90.25C215.833 89 216 87.4167 216 85.5V17.5C216 14.1667 215.542 11.9167 214.625 10.75C213.792 9.5 212.25 8.875 210 8.875C209.333 8.875 208.583 8.91667 207.75 9C207 9 206.25 9.04167 205.5 9.125H204.625V6.75ZM300.5 77C299.333 79.25 298.25 81.2083 297.25 82.875C296.333 84.4583 295.417 85.9167 294.5 87.25C293.667 88.5 292.792 89.625 291.875 90.625C290.958 91.625 289.958 92.5417 288.875 93.375C283.875 97.375 278.333 99.375 272.25 99.375C268.333 99.375 264.708 98.625 261.375 97.125C258.042 95.5417 255.167 93.3333 252.75 90.5C250.417 87.6667 248.583 84.3333 247.25 80.5C245.917 76.6667 245.25 72.4167 245.25 67.75C245.25 61.8333 246.25 56.4167 248.25 51.5C250.333 46.5 253.292 42.4167 257.125 39.25C260.042 36.8333 263.125 35.0417 266.375 33.875C269.708 32.625 273.083 32 276.5 32C279.5 32 282.333 32.4167 285 33.25C287.667 34 290 35.0417 292 36.375C294 37.7083 295.583 39.2917 296.75 41.125C297.917 42.875 298.5 44.75 298.5 46.75C298.5 48.4167 297.833 49.875 296.5 51.125C295.25 52.375 293.708 53 291.875 53C290.208 53 288.792 52.375 287.625 51.125C286.458 49.875 285.583 48.2083 285 46.125L284.125 43C283.458 40.3333 282.5 38.5417 281.25 37.625C280.083 36.7083 278.208 36.25 275.625 36.25C272.708 36.25 270.042 36.875 267.625 38.125C265.292 39.2917 263.292 41 261.625 43.25C259.958 45.5 258.625 48.1667 257.625 51.25C256.708 54.3333 256.25 57.75 256.25 61.5C256.25 65.5 256.792 69.2083 257.875 72.625C258.958 76.0417 260.458 78.9583 262.375 81.375C264.292 83.7917 266.583 85.7083 269.25 87.125C272 88.4583 275 89.125 278.25 89.125C282.333 89.125 285.875 88.1667 288.875 86.25C291.875 84.25 295.083 80.75 298.5 75.75L300.5 77ZM340.75 32.375C345.333 32.375 349.542 33.1667 353.375 34.75C357.208 36.3333 360.5 38.5833 363.25 41.5C366.083 44.3333 368.292 47.7083 369.875 51.625C371.458 55.5417 372.25 59.875 372.25 64.625C372.25 69.625 371.417 74.25 369.75 78.5C368.167 82.6667 365.958 86.3333 363.125 89.5C360.292 92.5833 356.917 95 353 96.75C349.167 98.5 345 99.375 340.5 99.375C336 99.375 331.833 98.5417 328 96.875C324.167 95.2083 320.875 92.875 318.125 89.875C315.375 86.875 313.208 83.3333 311.625 79.25C310.042 75.1667 309.25 70.7083 309.25 65.875C309.25 60.9583 310 56.4583 311.5 52.375C313.083 48.2083 315.25 44.6667 318 41.75C320.75 38.75 324.042 36.4583 327.875 34.875C331.792 33.2083 336.083 32.375 340.75 32.375ZM338.625 36.375C333.625 36.375 329.625 38.4167 326.625 42.5C323.625 46.5833 322.125 52 322.125 58.75C322.125 63.8333 322.667 68.7917 323.75 73.625C324.833 78.375 326.375 82.625 328.375 86.375C329.875 89.2917 331.875 91.5417 334.375 93.125C336.875 94.7083 339.583 95.5 342.5 95.5C347.75 95.5 351.833 93.2083 354.75 88.625C357.75 83.9583 359.25 77.5833 359.25 69.5C359.25 63.4167 358.375 57.75 356.625 52.5C354.875 47.25 352.5 43.2917 349.5 40.625C347.917 39.125 346.25 38.0417 344.5 37.375C342.75 36.7083 340.792 36.375 338.625 36.375ZM379.125 38.75C381.125 38.25 382.917 37.75 384.5 37.25C386.167 36.75 387.792 36.25 389.375 35.75C390.958 35.25 392.5 34.75 394 34.25C395.583 33.6667 397.292 33.0417 399.125 32.375L400.125 32.625V43.375C403.125 41.125 405.667 39.2917 407.75 37.875C409.833 36.375 411.667 35.25 413.25 34.5C414.917 33.6667 416.417 33.125 417.75 32.875C419.083 32.5417 420.542 32.375 422.125 32.375C429.875 32.375 434.917 36.4167 437.25 44.5C441.25 40.25 445.083 37.1667 448.75 35.25C452.5 33.3333 456.458 32.375 460.625 32.375C471.708 32.375 477.25 40.7917 477.25 57.625V87.125C477.25 92.5417 479.333 95.375 483.5 95.625L487.125 96V98H455.875V96C457.958 95.75 459.583 95.4583 460.75 95.125C462 94.7083 462.917 94.1667 463.5 93.5C464.167 92.75 464.583 91.75 464.75 90.5C465 89.25 465.125 87.5833 465.125 85.5V55.5C465.125 52.5 464.958 50 464.625 48C464.292 46 463.708 44.4167 462.875 43.25C462.042 42 460.917 41.125 459.5 40.625C458.167 40.0417 456.5 39.75 454.5 39.75C451.167 39.75 448.292 40.4583 445.875 41.875C443.458 43.2083 441.167 45.4167 439 48.5V84.5C439 86.6667 439.125 88.5 439.375 90C439.708 91.4167 440.25 92.5833 441 93.5C441.833 94.3333 442.917 94.9583 444.25 95.375C445.583 95.7083 447.25 95.9167 449.25 96V98H417.25V96C419.25 95.8333 420.875 95.5833 422.125 95.25C423.458 94.9167 424.458 94.375 425.125 93.625C425.875 92.875 426.375 91.875 426.625 90.625C426.875 89.375 427 87.75 427 85.75V54.75C427 44.75 423.917 39.75 417.75 39.75C415.083 39.75 412.292 40.3333 409.375 41.5C406.542 42.6667 404.292 44.0833 402.625 45.75C401.375 47.1667 400.75 48 400.75 48.25V88.5C400.75 91.3333 401.375 93.25 402.625 94.25C403.958 95.25 406.542 95.8333 410.375 96V98H378.75V96C380.75 95.9167 382.375 95.7083 383.625 95.375C384.958 95.0417 386 94.5 386.75 93.75C387.5 93 388 92 388.25 90.75C388.583 89.4167 388.75 87.7917 388.75 85.875V49.75C388.75 46.25 388.375 43.875 387.625 42.625C386.958 41.2917 385.667 40.625 383.75 40.625C382.917 40.625 382.167 40.7083 381.5 40.875C380.917 40.9583 380.125 41.0833 379.125 41.25V38.75ZM548 75.625C545 83.4583 540.917 89.375 535.75 93.375C530.667 97.375 524.667 99.375 517.75 99.375C513.667 99.375 509.958 98.625 506.625 97.125C503.375 95.625 500.583 93.5 498.25 90.75C495.917 88 494.125 84.6667 492.875 80.75C491.625 76.8333 491 72.4167 491 67.5C491 62.25 491.708 57.4583 493.125 53.125C494.625 48.7917 496.667 45.0833 499.25 42C501.917 38.8333 505.083 36.375 508.75 34.625C512.417 32.875 516.458 32 520.875 32C524.625 32 528.042 32.7083 531.125 34.125C534.292 35.5417 536.958 37.5417 539.125 40.125C540.042 41.2917 540.792 42.4583 541.375 43.625C542.042 44.7917 542.583 46.0833 543 47.5C543.5 48.9167 543.917 50.5 544.25 52.25C544.583 54 544.917 56 545.25 58.25H501.375C501.542 62.8333 501.917 66.625 502.5 69.625C503.167 72.5417 504.208 75.375 505.625 78.125C509.708 85.7917 515.708 89.625 523.625 89.625C528.208 89.625 532.167 88.5 535.5 86.25C538.917 84 542.333 80.1667 545.75 74.75L548 75.625ZM530.75 53.5C529.833 47.3333 528.333 43.0833 526.25 40.75C524.25 38.3333 521.083 37.125 516.75 37.125C512.333 37.125 508.875 38.4167 506.375 41C503.958 43.5833 502.375 47.75 501.625 53.5H530.75Z" fill="url(#paint0_linear_14_3)"/>
</g>
<defs>
<filter id="filter0_d_14_3" x="0.625" y="0.5" width="551.375" height="107.125" filterUnits="userSpaceOnUse" color-interpolation-filters="sRGB">
<feFlood flood-opacity="0" result="BackgroundImageFix"/>
<feColorMatrix in="SourceAlpha" type="matrix" values="0 0 0 0 0 0 0 0 0 0 0 0 0 0 0 0 0 0 127 0" result="hardAlpha"/>
<feOffset dy="4"/>
<feGaussianBlur stdDeviation="2"/>
<feComposite in2="hardAlpha" operator="out"/>
<feColorMatrix type="matrix" values="0 0 0 0 0 0 0 0 0 0 0 0 0 0 0 0 0 0 0.25 0"/>
<feBlend mode="normal" in2="BackgroundImageFix" result="effect1_dropShadow_14_3"/>
<feBlend mode="normal" in="SourceGraphic" in2="effect1_dropShadow_14_3" result="shape"/>
</filter>
<linearGradient id="paint0_linear_14_3" x1="4" y1="47" x2="751" y2="47" gradientUnits="userSpaceOnUse">
<stop stop-color="#0A0101"/>
<stop offset="0.72" stop-color="#767272"/>
<stop offset="0.935" stop-color="#E3E3E3"/>
</linearGradient>
</defs>
</svg>
