<svg width="425" height="72" viewBox="0 0 425 72" fill="none" xmlns="http://www.w3.org/2000/svg">
<path d="M20.017 70L0.3125 0.181816H13.9148L26.4943 51.4886H27.142L40.5739 0.181816H52.9489L66.4148 51.5227H67.0284L79.608 0.181816H93.2102L73.5057 70H61.0284L47.0511 21.0114H46.5057L32.4943 70H20.017ZM119.273 71.0227C114.023 71.0227 109.489 69.9318 105.67 67.75C101.875 65.5455 98.9545 62.4318 96.9091 58.4091C94.8636 54.3636 93.8409 49.6023 93.8409 44.125C93.8409 38.7386 94.8636 34.0114 96.9091 29.9432C98.9773 25.8523 101.864 22.6705 105.568 20.3977C109.273 18.1023 113.625 16.9545 118.625 16.9545C121.852 16.9545 124.898 17.4773 127.761 18.5227C130.648 19.5455 133.193 21.1364 135.398 23.2955C137.625 25.4545 139.375 28.2045 140.648 31.5455C141.92 34.8636 142.557 38.8182 142.557 43.4091V47.1932H99.6364V38.875H130.727C130.705 36.5114 130.193 34.4091 129.193 32.5682C128.193 30.7045 126.795 29.2386 125 28.1705C123.227 27.1023 121.159 26.5682 118.795 26.5682C116.273 26.5682 114.057 27.1818 112.148 28.4091C110.239 29.6136 108.75 31.2045 107.682 33.1818C106.636 35.1364 106.102 37.2841 106.08 39.625V46.8864C106.08 49.9318 106.636 52.5455 107.75 54.7273C108.864 56.8864 110.42 58.5455 112.42 59.7045C114.42 60.8409 116.761 61.4091 119.443 61.4091C121.239 61.4091 122.864 61.1591 124.318 60.6591C125.773 60.1364 127.034 59.375 128.102 58.375C129.17 57.375 129.977 56.1364 130.523 54.6591L142.045 55.9545C141.318 59 139.932 61.6591 137.886 63.9318C135.864 66.1818 133.273 67.9318 130.114 69.1818C126.955 70.4091 123.341 71.0227 119.273 71.0227ZM165.338 0.181816V70H152.997V0.181816H165.338ZM200.869 71.0227C195.642 71.0227 191.153 69.875 187.403 67.5795C183.676 65.2841 180.801 62.1136 178.778 58.0682C176.778 54 175.778 49.3182 175.778 44.0227C175.778 38.7045 176.801 34.0114 178.847 29.9432C180.892 25.8523 183.778 22.6705 187.506 20.3977C191.256 18.1023 195.688 16.9545 200.801 16.9545C205.051 16.9545 208.813 17.7386 212.085 19.3068C215.381 20.8523 218.006 23.0455 219.96 25.8864C221.915 28.7045 223.028 32 223.301 35.7727H211.506C211.028 33.25 209.892 31.1477 208.097 29.4659C206.324 27.7614 203.949 26.9091 200.972 26.9091C198.449 26.9091 196.233 27.5909 194.324 28.9545C192.415 30.2955 190.926 32.2273 189.858 34.75C188.813 37.2727 188.29 40.2955 188.29 43.8182C188.29 47.3864 188.813 50.4545 189.858 53.0227C190.903 55.5682 192.369 57.5341 194.256 58.9205C196.165 60.2841 198.403 60.9659 200.972 60.9659C202.79 60.9659 204.415 60.625 205.847 59.9432C207.301 59.2386 208.517 58.2273 209.494 56.9091C210.472 55.5909 211.142 53.9886 211.506 52.1023H223.301C223.006 55.8068 221.915 59.0909 220.028 61.9545C218.142 64.7955 215.574 67.0227 212.324 68.6364C209.074 70.2273 205.256 71.0227 200.869 71.0227ZM256.276 71.0227C251.162 71.0227 246.73 69.8977 242.98 67.6477C239.23 65.3977 236.321 62.25 234.253 58.2045C232.207 54.1591 231.185 49.4318 231.185 44.0227C231.185 38.6136 232.207 33.875 234.253 29.8068C236.321 25.7386 239.23 22.5795 242.98 20.3295C246.73 18.0795 251.162 16.9545 256.276 16.9545C261.389 16.9545 265.821 18.0795 269.571 20.3295C273.321 22.5795 276.219 25.7386 278.264 29.8068C280.332 33.875 281.366 38.6136 281.366 44.0227C281.366 49.4318 280.332 54.1591 278.264 58.2045C276.219 62.25 273.321 65.3977 269.571 67.6477C265.821 69.8977 261.389 71.0227 256.276 71.0227ZM256.344 61.1364C259.116 61.1364 261.435 60.375 263.298 58.8523C265.162 57.3068 266.548 55.2386 267.457 52.6477C268.389 50.0568 268.855 47.1705 268.855 43.9886C268.855 40.7841 268.389 37.8864 267.457 35.2955C266.548 32.6818 265.162 30.6023 263.298 29.0568C261.435 27.5114 259.116 26.7386 256.344 26.7386C253.503 26.7386 251.139 27.5114 249.253 29.0568C247.389 30.6023 245.991 32.6818 245.06 35.2955C244.151 37.8864 243.696 40.7841 243.696 43.9886C243.696 47.1705 244.151 50.0568 245.06 52.6477C245.991 55.2386 247.389 57.3068 249.253 58.8523C251.139 60.375 253.503 61.1364 256.344 61.1364ZM291.841 70V17.6364H303.636V26.5341H304.25C305.341 23.5341 307.148 21.1932 309.67 19.5114C312.193 17.8068 315.205 16.9545 318.705 16.9545C322.25 16.9545 325.239 17.8182 327.67 19.5455C330.125 21.25 331.852 23.5795 332.852 26.5341H333.398C334.557 23.625 336.511 21.3068 339.261 19.5795C342.034 17.8295 345.318 16.9545 349.114 16.9545C353.932 16.9545 357.864 18.4773 360.909 21.5227C363.955 24.5682 365.477 29.0114 365.477 34.8523V70H353.102V36.7614C353.102 33.5114 352.239 31.1364 350.511 29.6364C348.784 28.1136 346.67 27.3523 344.17 27.3523C341.193 27.3523 338.864 28.2841 337.182 30.1477C335.523 31.9886 334.693 34.3864 334.693 37.3409V70H322.591V36.25C322.591 33.5455 321.773 31.3864 320.136 29.7727C318.523 28.1591 316.409 27.3523 313.795 27.3523C312.023 27.3523 310.409 27.8068 308.955 28.7159C307.5 29.6023 306.341 30.8636 305.477 32.5C304.614 34.1136 304.182 36 304.182 38.1591V70H291.841ZM401.179 71.0227C395.929 71.0227 391.395 69.9318 387.577 67.75C383.781 65.5455 380.861 62.4318 378.815 58.4091C376.77 54.3636 375.747 49.6023 375.747 44.125C375.747 38.7386 376.77 34.0114 378.815 29.9432C380.884 25.8523 383.77 22.6705 387.474 20.3977C391.179 18.1023 395.531 16.9545 400.531 16.9545C403.759 16.9545 406.804 17.4773 409.668 18.5227C412.554 19.5455 415.099 21.1364 417.304 23.2955C419.531 25.4545 421.281 28.2045 422.554 31.5455C423.827 34.8636 424.463 38.8182 424.463 43.4091V47.1932H381.543V38.875H412.634C412.611 36.5114 412.099 34.4091 411.099 32.5682C410.099 30.7045 408.702 29.2386 406.906 28.1705C405.134 27.1023 403.065 26.5682 400.702 26.5682C398.179 26.5682 395.963 27.1818 394.054 28.4091C392.145 29.6136 390.656 31.2045 389.588 33.1818C388.543 35.1364 388.009 37.2841 387.986 39.625V46.8864C387.986 49.9318 388.543 52.5455 389.656 54.7273C390.77 56.8864 392.327 58.5455 394.327 59.7045C396.327 60.8409 398.668 61.4091 401.349 61.4091C403.145 61.4091 404.77 61.1591 406.224 60.6591C407.679 60.1364 408.94 59.375 410.009 58.375C411.077 57.375 411.884 56.1364 412.429 54.6591L423.952 55.9545C423.224 59 421.838 61.6591 419.793 63.9318C417.77 66.1818 415.179 67.9318 412.02 69.1818C408.861 70.4091 405.247 71.0227 401.179 71.0227Z" fill="url(#paint0_linear_10_7)" fill-opacity="0.85"/>
<defs>
<linearGradient id="paint0_linear_10_7" x1="16" y1="35" x2="429" y2="46.5" gradientUnits="userSpaceOnUse">
<stop stop-color="#5B9ED2"/>
<stop offset="0.82" stop-color="#EBFAFF"/>
</linearGradient>
</defs>
</svg>
